# xmcd
#
# Track frame offsets: 
#        150
#        21471
#        38448
#        60755
#        82192
#        100708
#        117426
#        133816
#        148450
#        160632
#        179661
#        201145
#        216732
#        227668
#
# Disc length: 3136 seconds
#
# Revision: 0
# Processed by: cddbd v1.5.2PL0 Copyright (c) Steve Scherf et al.
# Submitted via: ExactAudioCopy v1.0b1
#
DISCID=cd0c3e0e
DTITLE=Blues Blend - When Daylight Comes
DYEAR=2008
DGENRE=
TTITLE0=I Get The Bone
TTITLE1=Too Late
TTITLE2=Barefoot Boogie
TTITLE3=Dark Night
TTITLE4=When Daylight Comes
TTITLE5=Blues Cruise
TTITLE6=In The Blue Hour
TTITLE7=Tenderly
TTITLE8=It Ain't The Meat
TTITLE9=Mellow Down Easy
TTITLE10=Kiss Goodbye
TTITLE11=Sad Eyes
TTITLE12=Moon Dog Boogie
TTITLE13=The Price You Got To Pay
EXTD=
EXTT0=
EXTT1=
EXTT2=
EXTT3=
EXTT4=
EXTT5=
EXTT6=
EXTT7=
EXTT8=
EXTT9=
EXTT10=
EXTT11=
EXTT12=
EXTT13=
PLAYORDER=
